<svg xmlns="http://www.w3.org/2000/svg" viewBox="0 0 1024 1024" role="img" aria-labelledby="title desc">
  <title id="title">ZUIKI MASCON to JRETS app icon</title>
  <desc id="desc">A stylized train controller with a T-shaped handle, vertical slot, and colored notch indicators.</desc>
  <defs>
    <linearGradient id="backgroundGradient" x1="154" y1="40" x2="870" y2="984" gradientUnits="userSpaceOnUse">
      <stop offset="0" stop-color="#f4fbff"/>
      <stop offset="0.54" stop-color="#d2e8f6"/>
      <stop offset="1" stop-color="#9fbfd4"/>
    </linearGradient>
    <radialGradient id="backgroundLight" cx="320" cy="214" r="740" gradientUnits="userSpaceOnUse">
      <stop offset="0" stop-color="#ffffff" stop-opacity="0.72"/>
      <stop offset="1" stop-color="#ffffff" stop-opacity="0"/>
    </radialGradient>
    <linearGradient id="panelGradient" x1="258" y1="326" x2="792" y2="812" gradientUnits="userSpaceOnUse">
      <stop offset="0" stop-color="#637080"/>
      <stop offset="0.52" stop-color="#46515e"/>
      <stop offset="1" stop-color="#313b46"/>
    </linearGradient>
    <linearGradient id="panelRimGradient" x1="222" y1="336" x2="842" y2="828" gradientUnits="userSpaceOnUse">
      <stop offset="0" stop-color="#f6fbff" stop-opacity="0.86"/>
      <stop offset="0.45" stop-color="#b7c9d8" stop-opacity="0.58"/>
      <stop offset="1" stop-color="#182634" stop-opacity="0.55"/>
    </linearGradient>
    <linearGradient id="slotGradient" x1="312" y1="372" x2="456" y2="776" gradientUnits="userSpaceOnUse">
      <stop offset="0" stop-color="#171b20"/>
      <stop offset="1" stop-color="#080a0d"/>
    </linearGradient>
    <linearGradient id="handleGradient" x1="268" y1="168" x2="472" y2="276" gradientUnits="userSpaceOnUse">
      <stop offset="0" stop-color="#aeb7c0"/>
      <stop offset="0.5" stop-color="#596370"/>
      <stop offset="1" stop-color="#151b23"/>
    </linearGradient>
    <linearGradient id="shaftGradient" x1="338" y1="280" x2="422" y2="624" gradientUnits="userSpaceOnUse">
      <stop offset="0" stop-color="#eef2f4"/>
      <stop offset="0.5" stop-color="#c9d0d5"/>
      <stop offset="1" stop-color="#9ca6ad"/>
    </linearGradient>
  </defs>

  <rect x="0" y="0" width="1024" height="1024" fill="url(#backgroundGradient)"/>
  <rect x="0" y="0" width="1024" height="1024" fill="url(#backgroundLight)"/>

  <g transform="translate(-38 -18) scale(1.08)">
    <rect x="232" y="382" width="620" height="492" rx="78" fill="#0c1724" opacity="0.22"/>
    <rect x="210" y="324" width="644" height="516" rx="90" fill="#edf7ff" opacity="0.86"/>
    <rect x="222" y="336" width="620" height="492" rx="78" fill="url(#panelGradient)"/>
    <rect x="228" y="342" width="608" height="480" rx="72" fill="none" stroke="url(#panelRimGradient)" stroke-width="10" opacity="0.9"/>
    <path d="M292 360h486c31 0 49 4 62 18-17-8-35-12-62-12H292c-31 0-55 6-72 21 14-17 39-27 72-27Z" fill="#ffffff" opacity="0.2"/>

    <rect x="274" y="386" width="190" height="410" rx="70" fill="#edf7ff" opacity="0.24"/>
    <rect x="282" y="392" width="174" height="394" rx="62" fill="#25303b" opacity="0.96"/>
    <rect x="306" y="418" width="126" height="342" rx="38" fill="url(#slotGradient)"/>
    <rect x="314" y="426" width="110" height="326" rx="30" fill="none" stroke="#050608" stroke-width="12" opacity="0.58"/>

    <g stroke="#1b2630" stroke-linecap="butt" stroke-width="8" opacity="0.58">
      <line x1="334" y1="262" x2="334" y2="610"/>
      <line x1="406" y1="262" x2="406" y2="610"/>
    </g>
    <path d="M334 262h72v344c0 26-14 42-36 42s-36-16-36-42V262Z" fill="url(#shaftGradient)"/>
    <rect x="346" y="270" width="16" height="338" fill="#ffffff" opacity="0.24"/>
    <path d="M334 594h72v12c0 26-14 42-36 42s-36-16-36-42v-12Z" fill="#929da5" opacity="0.72"/>

    <rect x="222" y="150" width="308" height="150" rx="58" fill="#32425a" opacity="0.96"/>
    <rect x="232" y="160" width="288" height="130" rx="49" fill="#07090d"/>
    <rect x="248" y="173" width="256" height="104" rx="39" fill="url(#handleGradient)"/>
    <path d="M280 181h192c18 0 32 14 32 32v30H248v-30c0-18 14-32 32-32Z" fill="#ffffff" opacity="0.24"/>
    <rect x="268" y="191" width="216" height="12" rx="6" fill="#ffffff" opacity="0.18"/>

    <g stroke-linecap="round" stroke-width="14">
      <line x1="508" y1="436" x2="604" y2="436" stroke="#151b23" opacity="0.52"/>
      <line x1="508" y1="514" x2="604" y2="514" stroke="#151b23" opacity="0.52"/>
      <line x1="508" y1="592" x2="604" y2="592" stroke="#151b23" opacity="0.52"/>
      <line x1="508" y1="670" x2="604" y2="670" stroke="#151b23" opacity="0.52"/>
      <line x1="508" y1="748" x2="604" y2="748" stroke="#151b23" opacity="0.52"/>
    </g>
    <g stroke-linecap="round" stroke-width="10">
      <line x1="508" y1="436" x2="604" y2="436" stroke="#ff3b30"/>
      <line x1="508" y1="514" x2="604" y2="514" stroke="#f7f9fb"/>
      <line x1="508" y1="592" x2="604" y2="592" stroke="#75d943"/>
      <line x1="508" y1="670" x2="604" y2="670" stroke="#f7f9fb"/>
      <line x1="508" y1="748" x2="604" y2="748" stroke="#4c95ff"/>
    </g>
  </g>
</svg>
