<svg xmlns="http://www.w3.org/2000/svg" viewBox="0 0 1024 1024" role="img" aria-labelledby="title desc">
  <title id="title">ZUIKI MASCON to JRETS app icon</title>
  <desc id="desc">A stylized train controller with a T-shaped handle, vertical slot, and colored notch indicators.</desc>
  <defs>
    <linearGradient id="backgroundGradient" x1="154" y1="40" x2="870" y2="984" gradientUnits="userSpaceOnUse">
      <stop offset="0" stop-color="#182234"/>
      <stop offset="1" stop-color="#101827"/>
    </linearGradient>
    <linearGradient id="panelGradient" x1="258" y1="326" x2="792" y2="812" gradientUnits="userSpaceOnUse">
      <stop offset="0" stop-color="#404751"/>
      <stop offset="1" stop-color="#2f363f"/>
    </linearGradient>
    <linearGradient id="slotGradient" x1="312" y1="372" x2="456" y2="776" gradientUnits="userSpaceOnUse">
      <stop offset="0" stop-color="#171b20"/>
      <stop offset="1" stop-color="#080a0d"/>
    </linearGradient>
    <linearGradient id="handleGradient" x1="268" y1="168" x2="472" y2="276" gradientUnits="userSpaceOnUse">
      <stop offset="0" stop-color="#2f3134"/>
      <stop offset="0.48" stop-color="#121416"/>
      <stop offset="1" stop-color="#090a0c"/>
    </linearGradient>
    <linearGradient id="shaftGradient" x1="338" y1="280" x2="422" y2="624" gradientUnits="userSpaceOnUse">
      <stop offset="0" stop-color="#f4f5f5"/>
      <stop offset="0.58" stop-color="#d8d9d8"/>
      <stop offset="1" stop-color="#aeb0b0"/>
    </linearGradient>
  </defs>

  <rect x="32" y="32" width="960" height="960" rx="188" fill="url(#backgroundGradient)"/>
  <rect x="34" y="34" width="956" height="956" rx="186" fill="none" stroke="#243148" stroke-width="8" opacity="0.62"/>

  <g>
    <rect x="232" y="370" width="620" height="492" rx="78" fill="#02050a" opacity="0.28"/>
    <rect x="222" y="336" width="620" height="492" rx="78" fill="url(#panelGradient)"/>
    <rect x="228" y="342" width="608" height="480" rx="72" fill="none" stroke="#59616c" stroke-width="3" opacity="0.36"/>

    <rect x="282" y="392" width="174" height="394" rx="62" fill="#252b33" opacity="0.92"/>
    <rect x="306" y="418" width="126" height="342" rx="38" fill="url(#slotGradient)"/>
    <rect x="314" y="426" width="110" height="326" rx="30" fill="none" stroke="#050608" stroke-width="12" opacity="0.58"/>

    <path d="M342 270h56v338c0 24-13 40-28 40s-28-16-28-40V270Z" fill="#0d0f12" opacity="0.45"/>
    <path d="M334 262h72v344c0 26-14 42-36 42s-36-16-36-42V262Z" fill="url(#shaftGradient)"/>
    <path d="M334 262h72v72h-72v-72Z" fill="#fbfbfa" opacity="0.38"/>
    <path d="M334 594h72v12c0 26-14 42-36 42s-36-16-36-42v-12Z" fill="#c7c8c8" opacity="0.9"/>

    <rect x="246" y="168" width="252" height="116" rx="43" fill="#111316"/>
    <rect x="260" y="178" width="224" height="96" rx="34" fill="url(#handleGradient)"/>
    <path d="M286 184h172c15 0 26 12 26 27v22H260v-22c0-15 11-27 26-27Z" fill="#ffffff" opacity="0.12"/>

    <g stroke-linecap="round" stroke-width="14">
      <line x1="508" y1="436" x2="604" y2="436" stroke="#151b23" opacity="0.52"/>
      <line x1="508" y1="514" x2="604" y2="514" stroke="#151b23" opacity="0.52"/>
      <line x1="508" y1="592" x2="604" y2="592" stroke="#151b23" opacity="0.52"/>
      <line x1="508" y1="670" x2="604" y2="670" stroke="#151b23" opacity="0.52"/>
      <line x1="508" y1="748" x2="604" y2="748" stroke="#151b23" opacity="0.52"/>
    </g>
    <g stroke-linecap="round" stroke-width="10">
      <line x1="508" y1="436" x2="604" y2="436" stroke="#ff3b30"/>
      <line x1="508" y1="514" x2="604" y2="514" stroke="#f7f9fb"/>
      <line x1="508" y1="592" x2="604" y2="592" stroke="#75d943"/>
      <line x1="508" y1="670" x2="604" y2="670" stroke="#f7f9fb"/>
      <line x1="508" y1="748" x2="604" y2="748" stroke="#4c95ff"/>
    </g>
  </g>
</svg>
